<?xml version="1.0" encoding="iso-8859-1"?>
<!-- Generator: Adobe Illustrator 18.0.0, SVG Export Plug-In . SVG Version: 6.00 Build 0)  -->
<!DOCTYPE svg PUBLIC "-//W3C//DTD SVG 1.1//EN" "http://www.w3.org/Graphics/SVG/1.1/DTD/svg11.dtd">
<svg version="1.1" id="Capa_1" xmlns="http://www.w3.org/2000/svg" xmlns:xlink="http://www.w3.org/1999/xlink" x="0px" y="0px"
	 viewBox="0 0 296.999 296.999" style="enable-background:new 0 0 296.999 296.999;" xml:space="preserve">
<g stroke="#14bf98" fill="#14bf98 ">
	<path d="M124.478,112.026c3.768,0.786,7.623,1.186,11.458,1.186c21.89,0,41.733-12.988,50.995-32.173l10.457,1.806
		c0.75,0.129,1.497,0.192,2.234,0.192c6.229,0,11.739-4.479,12.835-10.824c1.226-7.098-3.534-13.845-10.632-15.07l-9.399-1.624
		c-0.253-9.82-3.153-19.392-8.566-27.854c-7.958-12.437-20.36-20.963-34.927-24.003c-2.595-0.542-5.401-0.806-8.581-0.806
		c-28.748,0-83.508,23.504-89.657,26.185c-3.848,1.676-6.652,5.1-7.537,9.201c-0.886,4.102,0.255,8.378,3.066,11.492
		C54.761,59.189,98.647,106.628,124.478,112.026z M140.352,28.938c1.68,0,2.696,0.14,3.251,0.255
		c7.645,1.596,14.138,6.046,18.284,12.528c1.826,2.854,3.102,5.956,3.813,9.185l-27.991-4.833
		c-7.096-1.224-13.844,3.535-15.07,10.632c-1.226,7.098,3.535,13.845,10.633,15.07l25.939,4.479
		c-5.674,6.683-14.142,10.876-23.274,10.876c-2.046,0-4.105-0.214-6.123-0.636c-9.45-1.975-31.623-20.669-51.335-40.613
		C98.218,38.273,125.843,28.938,140.352,28.938z"/>
	<path d="M186.243,192.565c7.203,0,13.042-5.839,13.042-13.042c0-7.202-5.839-13.041-13.042-13.041h-53.582l-6.738-20.218
		c-0.119-0.354-0.186-0.648-0.222-0.879c0.229-0.038,0.529-0.067,0.9-0.067l87.794-0.001c5.855,0,16.041,4.965,22.704,11.063
		c15.686,14.366,35.472,46.456,35.739,46.891c2.461,4.014,6.743,6.227,11.13,6.227c2.324,0,4.678-0.622,6.805-1.927
		c6.141-3.765,8.065-11.795,4.3-17.935c-0.887-1.446-21.935-35.617-40.36-52.492c-9.738-8.915-25.982-17.91-40.317-17.91
		l-87.794,0.001c-9.244,0-17.366,3.912-22.284,10.733c-4.918,6.821-6.063,15.766-3.14,24.54l3.772,11.317
		c-7.059-1.377-15.38-4.765-19.936-8.41l-48.92-39.146c-11.33-9.063-20.784-6.086-24.323-4.385C8.231,115.586,0,121.109,0,135.619
		v24.814c0,14.251,8.273,31.668,19.323,40.813l48.563,46.119c0.268,0.254,0.544,0.496,0.832,0.727
		c10.535,8.429,28.65,14.786,42.139,14.786h103.539c7.925,0,21.155,3.998,27.756,8.386l31.114,20.696
		c2.221,1.477,4.729,2.184,7.211,2.184c4.219,0,8.358-2.044,10.87-5.819c3.989-5.997,2.361-14.092-3.636-18.081l-31.117-20.698
		c-10.932-7.268-29.073-12.75-42.198-12.75H110.856c-7.434,0-19.395-4.143-25.46-8.77l-48.47-46.031
		c-0.267-0.253-0.544-0.496-0.831-0.725c-5.148-4.119-10.014-14.245-10.014-20.835v-16.77l42.636,34.117
		c10.534,8.428,28.648,14.784,42.139,14.784H186.243z"/>
</g>
<g>
</g>
<g>
</g>
<g>
</g>
<g>
</g>
<g>
</g>
<g>
</g>
<g>
</g>
<g>
</g>
<g>
</g>
<g>
</g>
<g>
</g>
<g>
</g>
<g>
</g>
<g>
</g>
<g>
</g>
</svg>
